<mxfile host="app.diagrams.net" agent="Mozilla/5.0 (Windows NT 10.0; Win64; x64) AppleWebKit/537.36 (KHTML, like Gecko) Chrome/138.0.0.0 Safari/537.36 Edg/138.0.0.0" version="28.0.4">
  <diagram name="Pagina-1" id="4SxGcodRju3OE-YcotA6">
    <mxGraphModel dx="1149" dy="633" grid="1" gridSize="10" guides="1" tooltips="1" connect="1" arrows="1" fold="1" page="1" pageScale="1" pageWidth="827" pageHeight="1169" math="0" shadow="0">
      <root>
        <mxCell id="0" />
        <mxCell id="1" parent="0" />
        <mxCell id="jSuncSNKbIkwN-Kj3OkV-5" value="GameRenderManager&lt;div&gt;&lt;br&gt;&lt;/div&gt;" style="swimlane;fontStyle=1;align=center;verticalAlign=top;childLayout=stackLayout;horizontal=1;startSize=26;horizontalStack=0;resizeParent=1;resizeParentMax=0;resizeLast=0;collapsible=1;marginBottom=0;whiteSpace=wrap;html=1;rounded=1;" vertex="1" parent="1">
          <mxGeometry x="55" y="80" width="340" height="86" as="geometry" />
        </mxCell>
        <mxCell id="jSuncSNKbIkwN-Kj3OkV-6" value="- Map&amp;lt;Class&amp;lt;? extends Entity&amp;gt;, EntityRender&amp;gt; entityRender" style="text;strokeColor=none;fillColor=none;align=left;verticalAlign=top;spacingLeft=4;spacingRight=4;overflow=hidden;rotatable=0;points=[[0,0.5],[1,0.5]];portConstraint=eastwest;whiteSpace=wrap;html=1;" vertex="1" parent="jSuncSNKbIkwN-Kj3OkV-5">
          <mxGeometry y="26" width="340" height="26" as="geometry" />
        </mxCell>
        <mxCell id="jSuncSNKbIkwN-Kj3OkV-7" value="" style="line;strokeWidth=1;fillColor=none;align=left;verticalAlign=middle;spacingTop=-1;spacingLeft=3;spacingRight=3;rotatable=0;labelPosition=right;points=[];portConstraint=eastwest;strokeColor=inherit;" vertex="1" parent="jSuncSNKbIkwN-Kj3OkV-5">
          <mxGeometry y="52" width="340" height="8" as="geometry" />
        </mxCell>
        <mxCell id="jSuncSNKbIkwN-Kj3OkV-8" value="+ render(g, entities, width, height, deltaTime)&lt;div&gt;&lt;br&gt;&lt;/div&gt;" style="text;strokeColor=none;fillColor=none;align=left;verticalAlign=top;spacingLeft=4;spacingRight=4;overflow=hidden;rotatable=0;points=[[0,0.5],[1,0.5]];portConstraint=eastwest;whiteSpace=wrap;html=1;" vertex="1" parent="jSuncSNKbIkwN-Kj3OkV-5">
          <mxGeometry y="60" width="340" height="26" as="geometry" />
        </mxCell>
        <mxCell id="jSuncSNKbIkwN-Kj3OkV-10" value="&lt;p style=&quot;margin:0px;margin-top:4px;text-align:center;&quot;&gt;&lt;i&gt;&amp;lt;&amp;lt;Interface&amp;gt;&amp;gt;&lt;/i&gt;&lt;br&gt;&lt;b&gt;EntityRender&lt;/b&gt;&lt;/p&gt;&lt;hr size=&quot;1&quot; style=&quot;border-style:solid;&quot;&gt;&lt;p style=&quot;margin:0px;margin-left:4px;&quot;&gt;&lt;span style=&quot;background-color: transparent; color: light-dark(rgb(0, 0, 0), rgb(255, 255, 255));&quot;&gt;draw(g: Graphics2D, entity: Entity, deltaTime, float, width: int, height: int)&lt;/span&gt;&lt;/p&gt;" style="verticalAlign=top;align=left;overflow=fill;html=1;whiteSpace=wrap;rounded=1;" vertex="1" parent="1">
          <mxGeometry x="30" y="210" width="390" height="70" as="geometry" />
        </mxCell>
        <mxCell id="jSuncSNKbIkwN-Kj3OkV-11" value="AbstractEntityRender&lt;div&gt;&lt;br&gt;&lt;/div&gt;" style="swimlane;fontStyle=1;align=center;verticalAlign=top;childLayout=stackLayout;horizontal=1;startSize=26;horizontalStack=0;resizeParent=1;resizeParentMax=0;resizeLast=0;collapsible=1;marginBottom=0;whiteSpace=wrap;html=1;rounded=1;" vertex="1" parent="1">
          <mxGeometry x="145" y="330" width="160" height="34" as="geometry" />
        </mxCell>
        <mxCell id="jSuncSNKbIkwN-Kj3OkV-13" value="" style="line;strokeWidth=1;fillColor=none;align=left;verticalAlign=middle;spacingTop=-1;spacingLeft=3;spacingRight=3;rotatable=0;labelPosition=right;points=[];portConstraint=eastwest;strokeColor=inherit;" vertex="1" parent="jSuncSNKbIkwN-Kj3OkV-11">
          <mxGeometry y="26" width="160" height="8" as="geometry" />
        </mxCell>
        <mxCell id="jSuncSNKbIkwN-Kj3OkV-15" value="«interface»&lt;br&gt;&lt;b&gt;AnimatedRender&lt;/b&gt;" style="html=1;whiteSpace=wrap;rounded=1;" vertex="1" parent="1">
          <mxGeometry x="480" y="219.5" width="110" height="50" as="geometry" />
        </mxCell>
        <mxCell id="jSuncSNKbIkwN-Kj3OkV-16" value="AnimatedEntityRender&lt;div&gt;&lt;br&gt;&lt;/div&gt;" style="swimlane;fontStyle=1;align=center;verticalAlign=top;childLayout=stackLayout;horizontal=1;startSize=26;horizontalStack=0;resizeParent=1;resizeParentMax=0;resizeLast=0;collapsible=1;marginBottom=0;whiteSpace=wrap;html=1;rounded=1;" vertex="1" parent="1">
          <mxGeometry x="455" y="329.5" width="160" height="34" as="geometry" />
        </mxCell>
        <mxCell id="jSuncSNKbIkwN-Kj3OkV-18" value="" style="line;strokeWidth=1;fillColor=none;align=left;verticalAlign=middle;spacingTop=-1;spacingLeft=3;spacingRight=3;rotatable=0;labelPosition=right;points=[];portConstraint=eastwest;strokeColor=inherit;" vertex="1" parent="jSuncSNKbIkwN-Kj3OkV-16">
          <mxGeometry y="26" width="160" height="8" as="geometry" />
        </mxCell>
        <mxCell id="jSuncSNKbIkwN-Kj3OkV-21" value="" style="endArrow=diamond;html=1;rounded=0;exitX=0.501;exitY=0.877;exitDx=0;exitDy=0;exitPerimeter=0;endFill=1;" edge="1" parent="1" source="jSuncSNKbIkwN-Kj3OkV-8" target="jSuncSNKbIkwN-Kj3OkV-10">
          <mxGeometry width="50" height="50" relative="1" as="geometry">
            <mxPoint x="371" y="380" as="sourcePoint" />
            <mxPoint x="351" y="270" as="targetPoint" />
          </mxGeometry>
        </mxCell>
        <mxCell id="jSuncSNKbIkwN-Kj3OkV-22" value="" style="endArrow=block;html=1;rounded=0;endFill=0;dashed=1;entryX=0.5;entryY=1;entryDx=0;entryDy=0;exitX=0.5;exitY=0;exitDx=0;exitDy=0;" edge="1" parent="1" source="jSuncSNKbIkwN-Kj3OkV-11" target="jSuncSNKbIkwN-Kj3OkV-10">
          <mxGeometry width="50" height="50" relative="1" as="geometry">
            <mxPoint x="351" y="428" as="sourcePoint" />
            <mxPoint x="351" y="340" as="targetPoint" />
            <Array as="points" />
          </mxGeometry>
        </mxCell>
        <mxCell id="jSuncSNKbIkwN-Kj3OkV-23" value="" style="endArrow=block;html=1;rounded=0;exitX=0;exitY=0.5;exitDx=0;exitDy=0;entryX=1;entryY=0.5;entryDx=0;entryDy=0;endFill=0;" edge="1" parent="1" source="jSuncSNKbIkwN-Kj3OkV-16" target="jSuncSNKbIkwN-Kj3OkV-11">
          <mxGeometry width="50" height="50" relative="1" as="geometry">
            <mxPoint x="371" y="380" as="sourcePoint" />
            <mxPoint x="421" y="330" as="targetPoint" />
          </mxGeometry>
        </mxCell>
        <mxCell id="jSuncSNKbIkwN-Kj3OkV-25" value="" style="endArrow=block;html=1;rounded=0;exitX=0.5;exitY=0;exitDx=0;exitDy=0;endFill=0;entryX=0.5;entryY=1;entryDx=0;entryDy=0;dashed=1;" edge="1" parent="1" source="jSuncSNKbIkwN-Kj3OkV-16" target="jSuncSNKbIkwN-Kj3OkV-15">
          <mxGeometry width="50" height="50" relative="1" as="geometry">
            <mxPoint x="245" y="289.5" as="sourcePoint" />
            <mxPoint x="515" y="299.5" as="targetPoint" />
          </mxGeometry>
        </mxCell>
        <mxCell id="jSuncSNKbIkwN-Kj3OkV-26" value="«interface»&lt;br&gt;&lt;b&gt;RenderManager&lt;/b&gt;" style="html=1;whiteSpace=wrap;rounded=1;" vertex="1" parent="1">
          <mxGeometry x="170" width="110" height="50" as="geometry" />
        </mxCell>
        <mxCell id="jSuncSNKbIkwN-Kj3OkV-27" value="" style="endArrow=block;html=1;rounded=0;dashed=1;endFill=0;exitX=0.5;exitY=0;exitDx=0;exitDy=0;entryX=0.5;entryY=1;entryDx=0;entryDy=0;" edge="1" parent="1" source="jSuncSNKbIkwN-Kj3OkV-5" target="jSuncSNKbIkwN-Kj3OkV-26">
          <mxGeometry width="50" height="50" relative="1" as="geometry">
            <mxPoint x="521" y="153" as="sourcePoint" />
            <mxPoint x="611" y="150" as="targetPoint" />
          </mxGeometry>
        </mxCell>
        <mxCell id="jSuncSNKbIkwN-Kj3OkV-28" value="PaulineRender" style="html=1;whiteSpace=wrap;rounded=1;" vertex="1" parent="1">
          <mxGeometry x="102" y="440" width="98" height="30" as="geometry" />
        </mxCell>
        <mxCell id="jSuncSNKbIkwN-Kj3OkV-29" value="HammerRender" style="html=1;whiteSpace=wrap;rounded=1;" vertex="1" parent="1">
          <mxGeometry x="102" y="390" width="98" height="30" as="geometry" />
        </mxCell>
        <mxCell id="jSuncSNKbIkwN-Kj3OkV-30" value="LadderRender" style="html=1;whiteSpace=wrap;rounded=1;" vertex="1" parent="1">
          <mxGeometry x="252" y="390" width="88" height="30" as="geometry" />
        </mxCell>
        <mxCell id="jSuncSNKbIkwN-Kj3OkV-31" value="AbstractPlatformRender" style="html=1;whiteSpace=wrap;rounded=1;strokeColor=default;" vertex="1" parent="1">
          <mxGeometry x="157.5" y="480" width="135" height="30" as="geometry" />
        </mxCell>
        <mxCell id="jSuncSNKbIkwN-Kj3OkV-32" value="DonkeyKongRender" style="html=1;whiteSpace=wrap;rounded=1;" vertex="1" parent="1">
          <mxGeometry x="395" y="399.5" width="120" height="30" as="geometry" />
        </mxCell>
        <mxCell id="jSuncSNKbIkwN-Kj3OkV-33" value="MarioRender" style="html=1;whiteSpace=wrap;rounded=1;strokeColor=default;" vertex="1" parent="1">
          <mxGeometry x="555" y="399.5" width="80" height="30" as="geometry" />
        </mxCell>
        <mxCell id="jSuncSNKbIkwN-Kj3OkV-34" value="CoinRender" style="html=1;whiteSpace=wrap;rounded=1;" vertex="1" parent="1">
          <mxGeometry x="555" y="442.25" width="80" height="30" as="geometry" />
        </mxCell>
        <mxCell id="jSuncSNKbIkwN-Kj3OkV-35" value="AbstractEnemyRender" style="html=1;whiteSpace=wrap;rounded=1;" vertex="1" parent="1">
          <mxGeometry x="390" y="444.5" width="125" height="25.5" as="geometry" />
        </mxCell>
        <mxCell id="jSuncSNKbIkwN-Kj3OkV-38" value="TankRender" style="html=1;whiteSpace=wrap;rounded=1;" vertex="1" parent="1">
          <mxGeometry x="252" y="440" width="88" height="30" as="geometry" />
        </mxCell>
        <mxCell id="jSuncSNKbIkwN-Kj3OkV-43" value="" style="endArrow=classic;html=1;rounded=0;exitX=0.5;exitY=0;exitDx=0;exitDy=0;entryX=0.5;entryY=1;entryDx=0;entryDy=0;" edge="1" parent="1" source="jSuncSNKbIkwN-Kj3OkV-31" target="jSuncSNKbIkwN-Kj3OkV-11">
          <mxGeometry width="50" height="50" relative="1" as="geometry">
            <mxPoint x="451" y="410" as="sourcePoint" />
            <mxPoint x="501" y="360" as="targetPoint" />
          </mxGeometry>
        </mxCell>
        <mxCell id="jSuncSNKbIkwN-Kj3OkV-44" value="" style="endArrow=none;html=1;rounded=0;exitX=1;exitY=0.5;exitDx=0;exitDy=0;entryX=0;entryY=0.5;entryDx=0;entryDy=0;" edge="1" parent="1" source="jSuncSNKbIkwN-Kj3OkV-29" target="jSuncSNKbIkwN-Kj3OkV-30">
          <mxGeometry width="50" height="50" relative="1" as="geometry">
            <mxPoint x="451" y="310" as="sourcePoint" />
            <mxPoint x="501" y="260" as="targetPoint" />
          </mxGeometry>
        </mxCell>
        <mxCell id="jSuncSNKbIkwN-Kj3OkV-45" value="" style="endArrow=none;html=1;rounded=0;exitX=1;exitY=0.5;exitDx=0;exitDy=0;entryX=0;entryY=0.5;entryDx=0;entryDy=0;" edge="1" parent="1" source="jSuncSNKbIkwN-Kj3OkV-28" target="jSuncSNKbIkwN-Kj3OkV-38">
          <mxGeometry width="50" height="50" relative="1" as="geometry">
            <mxPoint x="451" y="310" as="sourcePoint" />
            <mxPoint x="501" y="260" as="targetPoint" />
          </mxGeometry>
        </mxCell>
        <mxCell id="jSuncSNKbIkwN-Kj3OkV-46" value="" style="endArrow=none;html=1;rounded=0;exitX=1;exitY=0.5;exitDx=0;exitDy=0;entryX=0;entryY=0.5;entryDx=0;entryDy=0;" edge="1" parent="1" source="jSuncSNKbIkwN-Kj3OkV-32" target="jSuncSNKbIkwN-Kj3OkV-33">
          <mxGeometry width="50" height="50" relative="1" as="geometry">
            <mxPoint x="325" y="329.5" as="sourcePoint" />
            <mxPoint x="375" y="279.5" as="targetPoint" />
          </mxGeometry>
        </mxCell>
        <mxCell id="jSuncSNKbIkwN-Kj3OkV-47" value="" style="endArrow=none;html=1;rounded=0;exitX=1;exitY=0.5;exitDx=0;exitDy=0;entryX=0;entryY=0.5;entryDx=0;entryDy=0;" edge="1" parent="1" source="jSuncSNKbIkwN-Kj3OkV-35" target="jSuncSNKbIkwN-Kj3OkV-34">
          <mxGeometry width="50" height="50" relative="1" as="geometry">
            <mxPoint x="325" y="329.5" as="sourcePoint" />
            <mxPoint x="375" y="279.5" as="targetPoint" />
          </mxGeometry>
        </mxCell>
        <mxCell id="jSuncSNKbIkwN-Kj3OkV-48" value="" style="endArrow=classic;html=1;rounded=0;entryX=0.5;entryY=1;entryDx=0;entryDy=0;" edge="1" parent="1" target="jSuncSNKbIkwN-Kj3OkV-16">
          <mxGeometry width="50" height="50" relative="1" as="geometry">
            <mxPoint x="535" y="459.5" as="sourcePoint" />
            <mxPoint x="375" y="279.5" as="targetPoint" />
          </mxGeometry>
        </mxCell>
      </root>
    </mxGraphModel>
  </diagram>
</mxfile>
